<svg width="313" height="525" viewBox="0 0 313 525" fill="none" xmlns="http://www.w3.org/2000/svg">
<path d="M-6.5 465.5C-38.0619 434.818 -3.12435 449.841 -40.9156 397.016C-47.0065 310.36 -59.0222 91.5439 -51.7131 75.9042C-44.404 60.2646 36.8817 23.0788 76.6109 6.44088C85.1935 6.44088 132.259 -23.9233 254.354 47.2038C301.697 81.3115 337.412 152.855 292.145 204.432C280.356 217.866 145.701 221.563 210.5 358.5C248.291 438.362 259.089 485.87 210.5 515.728C173.955 538.185 147.869 515.728 110 479.541C-16.6626 358.5 25.0619 496.182 -6.5 465.5Z" fill="#E0E2D5"/>
<path d="M-6.5 465.5C-38.0619 434.818 -3.12435 449.841 -40.9156 397.016C-47.0065 310.36 -59.0222 91.5439 -51.7131 75.9042C-44.404 60.2646 36.8817 23.0788 76.6109 6.44088C85.1935 6.44088 132.259 -23.9233 254.354 47.2038C301.697 81.3115 337.412 152.855 292.145 204.432C280.356 217.866 145.701 221.563 210.5 358.5C248.291 438.362 259.089 485.87 210.5 515.728C173.955 538.185 147.869 515.728 110 479.541C-16.6626 358.5 25.0619 496.182 -6.5 465.5Z" fill="url(#paint0_linear_7_8)"/>
<defs>
<linearGradient id="paint0_linear_7_8" x1="-27" y1="414" x2="389" y2="301.5" gradientUnits="userSpaceOnUse">
<stop stop-color="#5DADB0"/>
<stop offset="1" stop-color="white" stop-opacity="0"/>
</linearGradient>
</defs>
</svg>
