<svg width="461" height="502" viewBox="0 0 461 502" fill="none" xmlns="http://www.w3.org/2000/svg">
<path d="M314.927 0.50472C189.471 -8.87516 180.427 115.505 166.427 122.505C135.927 168.505 111.17 84.2534 33.9271 159.005C-74.5728 264.005 112.927 270.005 100.927 375.505C88.9272 481.005 153.427 502.505 260.927 501.505C368.427 500.505 312.927 417.351 387.927 454.005C449.583 484.137 469.5 441 497.5 401L532.5 335.5C562 185 486.427 86.0047 486.427 86.0047C486.427 86.0047 421.927 8.50472 314.927 0.50472Z" fill="#6DB8BB"/>
<path d="M314.927 0.50472C189.471 -8.87516 180.427 115.505 166.427 122.505C135.927 168.505 111.17 84.2534 33.9271 159.005C-74.5728 264.005 112.927 270.005 100.927 375.505C88.9272 481.005 153.427 502.505 260.927 501.505C368.427 500.505 312.927 417.351 387.927 454.005C449.583 484.137 469.5 441 497.5 401L532.5 335.5C562 185 486.427 86.0047 486.427 86.0047C486.427 86.0047 421.927 8.50472 314.927 0.50472Z" fill="url(#paint0_linear_4_1)"/>
<defs>
<linearGradient id="paint0_linear_4_1" x1="243.214" y1="0" x2="243.214" y2="501.537" gradientUnits="userSpaceOnUse">
<stop stop-color="#6DB8BB"/>
<stop offset="1" stop-color="#05647A"/>
</linearGradient>
</defs>
</svg>
