<svg width="200" height="371" viewBox="0 0 200 371" fill="none" xmlns="http://www.w3.org/2000/svg">
<path d="M-8.5 370.5C84.3487 377.457 60 308.5 116 252C140 233.5 173.5 266 197 219C212.5 188 160 163 152 93C143.058 14.7556 49.9256 -6.72957 1.9256 2.00001C-76.3535 16.2364 -11.1927 133.5 -73 133.5C-88.5 133.5 -140.5 105.118 -166.5 126C-245.5 189.449 -138 303.5 -138 303.5C-138 303.5 -87.6897 364.566 -8.5 370.5Z" fill="#6DB8BB"/>
<path d="M-8.5 370.5C84.3487 377.457 60 308.5 116 252C140 233.5 173.5 266 197 219C212.5 188 160 163 152 93C143.058 14.7556 49.9256 -6.72957 1.9256 2.00001C-76.3535 16.2364 -11.1927 133.5 -73 133.5C-88.5 133.5 -140.5 105.118 -166.5 126C-245.5 189.449 -138 303.5 -138 303.5C-138 303.5 -87.6897 364.566 -8.5 370.5Z" fill="url(#paint0_linear_7_7)"/>
<defs>
<linearGradient id="paint0_linear_7_7" x1="148" y1="42.5" x2="-93" y2="214" gradientUnits="userSpaceOnUse">
<stop stop-color="#6DB8BB"/>
<stop offset="0.919554" stop-color="#05647A"/>
</linearGradient>
</defs>
</svg>
