<svg width="664" height="443" viewBox="0 0 664 443" fill="none" xmlns="http://www.w3.org/2000/svg">
<path d="M69.4998 54.5C106.382 16.5 123 62 186.5 16.5C290.667 9.16668 553.7 -5.30002 572.5 3.49998C591.3 12.3 636 110.167 656 158C656 168.333 692.5 225 607 372C566 429 480 472 418 417.5C401.852 403.305 364.608 293.983 200 372C104 417.5 46.8912 430.5 10.9999 372C-15.9953 328 11 296.593 54.4999 251C200 98.4999 32.6175 92.4999 69.4998 54.5Z" fill="#E0E2D5"/>
<path d="M69.4998 54.5C106.382 16.5 123 62 186.5 16.5C290.667 9.16668 553.7 -5.30002 572.5 3.49998C591.3 12.3 636 110.167 656 158C656 168.333 692.5 225 607 372C566 429 480 472 418 417.5C401.852 403.305 364.608 293.983 200 372C104 417.5 46.8912 430.5 10.9999 372C-15.9953 328 11 296.593 54.4999 251C200 98.4999 32.6175 92.4999 69.4998 54.5Z" fill="url(#paint0_linear_4_12)"/>
<defs>
<linearGradient id="paint0_linear_4_12" x1="331.97" y1="2.07248" x2="331.97" y2="442.609" gradientUnits="userSpaceOnUse">
<stop stop-color="#5DADB0"/>
<stop offset="1" stop-color="white" stop-opacity="0"/>
</linearGradient>
</defs>
</svg>
