<svg width="337" height="460" viewBox="0 0 337 460" fill="none" xmlns="http://www.w3.org/2000/svg">
<path d="M105.645 457.765C213.424 442.827 198.398 336.019 208.958 327.548C226.36 283.097 262.649 349.816 314.33 272.536C386.924 163.983 258.089 151.507 249.004 60.1227C239.918 -31.262 150.681 3.89951 59.9752 24.3407C-30.7308 44.7818 31.3507 104.969 -38.7412 87.6507C-96.3624 73.4134 -189 232.5 -119 340.5C-109.43 384.887 -54.9393 416.74 -54.9393 416.74C-54.9393 416.74 13.7209 470.506 105.645 457.765Z" fill="#6DB8BB"/>
<path d="M105.645 457.765C213.424 442.827 198.398 336.019 208.958 327.548C226.36 283.097 262.649 349.816 314.33 272.536C386.924 163.983 258.089 151.507 249.004 60.1227C239.918 -31.262 150.681 3.89951 59.9752 24.3407C-30.7308 44.7818 31.3507 104.969 -38.7412 87.6507C-96.3624 73.4134 -189 232.5 -119 340.5C-109.43 384.887 -54.9393 416.74 -54.9393 416.74C-54.9393 416.74 13.7209 470.506 105.645 457.765Z" fill="url(#paint0_linear_11_53)"/>
<defs>
<linearGradient id="paint0_linear_11_53" x1="166.368" y1="445.12" x2="74.9455" y2="21.0842" gradientUnits="userSpaceOnUse">
<stop stop-color="#6DB8BB"/>
<stop offset="1" stop-color="#05647A"/>
</linearGradient>
</defs>
</svg>
