<svg width="609" height="599" viewBox="0 0 609 599" fill="none" xmlns="http://www.w3.org/2000/svg">
<path d="M168.468 504.614C106.968 447.614 207.968 388.5 127.468 285C-48.5 219.5 -15 42.3718 71.5 11.4998C220 -41.5003 234 114.5 292 131.5C445.653 211.5 500.474 114.106 581.5 151C628.843 185.108 604 251.5 581.5 269C506.312 327.479 484.353 326.394 549.153 463.33C586.944 543.192 576.305 569.161 533.653 590.83C491 612.5 451.501 581.658 413.633 545.471C286.97 424.43 229.967 561.614 168.468 504.614Z" fill="#E0E2D5"/>
<path d="M168.468 504.614C106.968 447.614 207.968 388.5 127.468 285C-48.5 219.5 -15 42.3718 71.5 11.4998C220 -41.5003 234 114.5 292 131.5C445.653 211.5 500.474 114.106 581.5 151C628.843 185.108 604 251.5 581.5 269C506.312 327.479 484.353 326.394 549.153 463.33C586.944 543.192 576.305 569.161 533.653 590.83C491 612.5 451.501 581.658 413.633 545.471C286.97 424.43 229.967 561.614 168.468 504.614Z" fill="url(#paint0_linear_11_43)"/>
<defs>
<linearGradient id="paint0_linear_11_43" x1="232.5" y1="454" x2="573.5" y2="-18.5001" gradientUnits="userSpaceOnUse">
<stop stop-color="#5DADB0"/>
<stop offset="1" stop-color="white" stop-opacity="0"/>
</linearGradient>
</defs>
</svg>
