<svg width="237" height="502" viewBox="0 0 237 502" fill="none" xmlns="http://www.w3.org/2000/svg">
<path d="M-93.5 442.5C-156 442.5 -186.589 385.362 -211.5 280C-242 151 -135.225 91.6396 -127.916 76C-120.607 60.3603 -39.3208 23.1746 0.40841 6.53667C8.99102 6.53667 56.0569 -23.8275 178.152 47.2996C225.494 81.4073 261.209 152.951 215.943 204.528C204.153 217.962 58.7007 198.563 123.5 335.5C161.291 415.362 172.089 462.871 123.5 492.728C86.9547 515.186 60.8685 492.728 23.0003 456.541C-18 417.36 -31 442.5 -93.5 442.5Z" fill="#E0E2D5"/>
<path d="M-93.5 442.5C-156 442.5 -186.589 385.362 -211.5 280C-242 151 -135.225 91.6396 -127.916 76C-120.607 60.3603 -39.3208 23.1746 0.40841 6.53667C8.99102 6.53667 56.0569 -23.8275 178.152 47.2996C225.494 81.4073 261.209 152.951 215.943 204.528C204.153 217.962 58.7007 198.563 123.5 335.5C161.291 415.362 172.089 462.871 123.5 492.728C86.9547 515.186 60.8685 492.728 23.0003 456.541C-18 417.36 -31 442.5 -93.5 442.5Z" fill="url(#paint0_linear_9_32)"/>
<defs>
<linearGradient id="paint0_linear_9_32" x1="-39" y1="395.5" x2="273.5" y2="15.4999" gradientUnits="userSpaceOnUse">
<stop stop-color="#5DADB0"/>
<stop offset="1" stop-color="white" stop-opacity="0"/>
</linearGradient>
</defs>
</svg>
