<svg width="447" height="504" viewBox="0 0 447 504" fill="none" xmlns="http://www.w3.org/2000/svg">
<path d="M322.927 0.50472C197.471 -8.87516 188.427 115.505 174.427 122.505C143.927 168.505 119.17 84.2534 41.9272 159.005C-66.5728 264.005 76 309.5 64 415C52 520.5 161.427 502.505 268.927 501.505C376.427 500.505 320.927 417.351 395.927 454.005C457.583 484.137 482.573 470.5 519.5 406.5C614 201.5 494.427 86.0047 494.427 86.0047C494.427 86.0047 429.927 8.50472 322.927 0.50472Z" fill="#6DB8BB"/>
<path d="M322.927 0.50472C197.471 -8.87516 188.427 115.505 174.427 122.505C143.927 168.505 119.17 84.2534 41.9272 159.005C-66.5728 264.005 76 309.5 64 415C52 520.5 161.427 502.505 268.927 501.505C376.427 500.505 320.927 417.351 395.927 454.005C457.583 484.137 482.573 470.5 519.5 406.5C614 201.5 494.427 86.0047 494.427 86.0047C494.427 86.0047 429.927 8.50472 322.927 0.50472Z" fill="url(#paint0_linear_9_0)"/>
<defs>
<linearGradient id="paint0_linear_9_0" x1="251.214" y1="0" x2="251.214" y2="501.537" gradientUnits="userSpaceOnUse">
<stop stop-color="#6DB8BB"/>
<stop offset="1" stop-color="#05647A"/>
</linearGradient>
</defs>
</svg>
