<svg width="672" height="671" viewBox="0 0 672 671" fill="none" xmlns="http://www.w3.org/2000/svg">
<path d="M225.5 579C164 522 227.5 483.008 147 379.508C-32.5 273 -49.9999 43.7393 111.5 7C340.5 -45.0947 360.685 238.216 418.685 255.216C562.185 245.716 538.464 151.153 660.558 222.28C707.901 256.387 743.616 327.931 698.349 379.508C686.56 392.942 541.385 400.779 606.185 537.716C643.976 617.578 616.685 649.239 590.685 665.216C564.685 681.193 508.534 656.044 470.665 619.856C344.002 498.816 287 636 225.5 579Z" fill="#E0E2D5"/>
<path d="M225.5 579C164 522 227.5 483.008 147 379.508C-32.5 273 -49.9999 43.7393 111.5 7C340.5 -45.0947 360.685 238.216 418.685 255.216C562.185 245.716 538.464 151.153 660.558 222.28C707.901 256.387 743.616 327.931 698.349 379.508C686.56 392.942 541.385 400.779 606.185 537.716C643.976 617.578 616.685 649.239 590.685 665.216C564.685 681.193 508.534 656.044 470.665 619.856C344.002 498.816 287 636 225.5 579Z" fill="url(#paint0_linear_9_1)"/>
<defs>
<linearGradient id="paint0_linear_9_1" x1="603" y1="258" x2="207.5" y2="577" gradientUnits="userSpaceOnUse">
<stop stop-color="#5DADB0"/>
<stop offset="1" stop-color="white" stop-opacity="0"/>
</linearGradient>
</defs>
</svg>
